<?xml version="1.0" standalone="no"?>
<!DOCTYPE svg PUBLIC "-//W3C//DTD SVG 1.1//EN" "http://www.w3.org/Graphics/SVG/1.1/DTD/svg11.dtd" >
<svg xmlns="http://www.w3.org/2000/svg">
<metadata>Generated by IcoMoon</metadata>
<defs>
<font id="icomoon" horiz-adv-x="1024">
<font-face units-per-em="1024" ascent="960" descent="-64" />
<missing-glyph horiz-adv-x="1024" />
<glyph unicode="&#x20;" horiz-adv-x="512" d="" />
<glyph unicode="&#xe900;" glyph-name="cart" d="M931.072 642.944c-3.927 5.671-9.169 10.307-15.273 13.51-6.109 3.203-12.902 4.877-19.799 4.879h-583.127l-49.237 118.187c-6.456 15.564-17.388 28.86-31.41 38.203s-30.503 14.312-47.353 14.277h-99.541v-85.333h99.541l202.411-485.759c3.242-7.775 8.713-14.411 15.72-19.082 7.007-4.667 15.242-7.16 23.662-7.16h341.335c17.79 0 33.705 11.051 39.975 27.648l128 341.335c2.422 6.459 3.237 13.408 2.383 20.252s-3.356 13.379-7.286 19.044zM448 64c35.348 0 64 28.652 64 64s-28.652 64-64 64c-35.348 0-64-28.652-64-64s28.652-64 64-64zM746.669 64c35.344 0 64 28.652 64 64s-28.656 64-64 64c-35.348 0-64-28.652-64-64s28.652-64 64-64z" />
<glyph unicode="&#xe901;" glyph-name="check" horiz-adv-x="964" d="M327.337 102.761l-313.223 313.225c-18.818 18.818-18.818 49.329 0 68.149l68.147 68.148c18.818 18.82 49.331 18.82 68.148 0l211.002-211.002 451.946 451.944c18.818 18.818 49.327 18.818 68.144 0l68.15-68.148c18.818-18.818 18.818-49.329 0-68.149l-554.166-554.166c-18.82-18.818-49.331-18.818-68.149 0z" />
<glyph unicode="&#xe902;" glyph-name="close" d="M12.908 834.97l85.597 85.597 884.506-884.506-85.597-85.597-884.506 884.506zM983.013 834.97l-85.597 85.597-884.506-884.506 85.597-85.597 884.506 884.506z" />
<glyph unicode="&#xe903;" glyph-name="delete" horiz-adv-x="970" d="M700.632 543.549v-377.263c0-14.293-5.681-28.004-15.786-38.109-10.105-10.111-23.816-15.786-38.109-15.786h-323.368c-14.294 0-28.002 5.675-38.11 15.786-10.107 10.105-15.785 23.816-15.785 38.109v377.263h431.158zM565.895 759.128l53.895-53.895h134.737v-107.789h-538.947v107.789h134.737l53.895 53.895h161.684z" />
<glyph unicode="&#xe904;" glyph-name="2" horiz-adv-x="910" d="M884.873 150.183v-212.132h-772.046l243.879 255.424c87.547 91.395 153.448 172.688 197.701 243.88 34.634 53.875 51.951 103.901 51.951 150.080 0 40.406-9.62 71.192-28.861 92.357-17.317 19.241-40.887 28.861-70.712 28.861-35.595 0-63.495-12.988-83.698-38.963-21.165-26.937-32.709-66.381-34.633-118.331h-258.311c0.961 107.749 36.558 196.739 106.787 266.968 69.268 69.268 160.182 103.902 272.741 103.902 114.484 0 204.917-33.191 271.299-99.573 62.533-62.533 93.8-141.421 93.8-236.665 0-101.977-47.622-197.22-142.864-285.729l-161.625-150.080h314.591z" />
<glyph unicode="&#xe905;" glyph-name="mail" d="M170.667 721.067c-9.231 0-17.067-7.836-17.067-17.067v-512c0-9.23 7.836-17.067 17.067-17.067h682.667c9.23 0 17.067 7.837 17.067 17.067v512c0 9.231-7.837 17.067-17.067 17.067h-682.667zM17.067 704c0 84.636 68.964 153.6 153.6 153.6h682.667c84.637 0 153.6-68.964 153.6-153.6v-512c0-84.637-68.963-153.6-153.6-153.6h-682.667c-84.636 0-153.6 68.963-153.6 153.6v512zM29.413 743.143c21.621 30.887 64.187 38.399 95.075 16.778l387.518-271.263 387.516 271.263c30.891 21.621 73.455 14.109 95.075-16.778s14.111-73.454-16.773-95.075l-426.67-298.667c-23.506-16.454-54.791-16.454-78.297 0l-426.666 298.667c-30.887 21.621-38.399 64.188-16.778 95.075z" />
<glyph unicode="&#xe906;" glyph-name="down" horiz-adv-x="717" d="M407.041 30.481l309.76 322.56h-197.12v563.68h-225.28v-563.68h-197.12l309.76-322.56z" />
<glyph unicode="&#xe907;" glyph-name="kan" horiz-adv-x="3072" d="M1691.92 448h114.558l-158.578-192.469 188.593-217.159h-128.063l-170.082 198.514v-198.514h-102.554v409.628h102.554v-188.944l153.572 188.944zM2109.594 38.372h-106.134l178.909 409.628h108.15l180.421-409.628h-105.626l-128.366 308.98-40.428-98.127-86.926-210.853zM2975.366 448h96.587v-409.628h-87.024l-217.561 254.444v-254.444h-96.11v409.628h85.591l218.518-255.449v255.449zM807.617-64h-807.617l544.256 1024 547.107-1024h-283.746zM427.248 175.226h228.71l-114.148 246.307-114.562-246.307zM1644.702 644.927l-0.315 132.332-64.906-109.017h-23.001l-64.591 106.181v-129.497h-47.892v220.554h42.22l82.55-137.058 81.29 137.058h41.905l0.63-220.554h-47.892zM1905.924 692.189h-102.4l-19.535-47.262h-52.303l98.304 220.554h50.412l98.619-220.554h-53.563l-19.535 47.262zM1889.855 730.943l-34.974 84.441-34.974-84.441h69.947zM2017.658 865.481h100.194c23.946 0 45.056-4.621 63.33-13.863 18.487-9.032 32.768-21.845 42.85-38.439 10.295-16.594 15.439-35.919 15.439-57.974s-5.144-41.38-15.439-57.974c-10.082-16.594-24.363-29.512-42.85-38.754-18.274-9.032-39.385-13.548-63.33-13.548h-100.194v220.554zM2115.332 686.832c22.055 0 39.597 6.091 52.618 18.274 13.233 12.393 19.85 29.092 19.85 50.097s-6.617 37.599-19.85 49.782c-13.021 12.393-30.562 18.59-52.618 18.59h-46.631v-136.743h46.631zM2464.492 685.887v-40.96h-170.772v220.554h166.676v-40.96h-115.948v-47.892h102.4v-39.7h-102.4v-51.042h120.044zM2787.793 759.615c12.603-3.991 22.477-10.713 29.617-20.165 7.14-9.242 10.713-20.69 10.713-34.343 0-19.325-7.562-34.239-22.686-44.741-14.915-10.293-36.758-15.439-65.536-15.439h-114.058v220.554h107.756c26.888 0 47.47-5.146 61.755-15.439 14.494-10.293 21.74-24.261 21.74-41.905 0-10.713-2.627-20.27-7.877-28.672-5.041-8.402-12.182-15.019-21.425-19.85zM2676.571 827.041v-51.988h50.727c12.603 0 22.162 2.206 28.672 6.617s9.767 10.923 9.767 19.535c0 8.612-3.257 15.019-9.767 19.22-6.51 4.411-16.069 6.617-28.672 6.617h-50.727zM2736.12 683.366c13.442 0 23.524 2.206 30.247 6.617 6.932 4.411 10.398 11.238 10.398 20.48 0 18.274-13.548 27.412-40.645 27.412h-59.55v-54.508h59.55zM2983.771 723.066v-78.139h-51.042v78.769l-85.386 141.785h54.193l58.919-97.989 58.919 97.989h50.097l-85.701-142.415z" />
<glyph unicode="&#xe908;" glyph-name="list" horiz-adv-x="970" d="M53.895 912.842h862.316c29.765 0 53.895-24.129 53.895-53.895v-100.090c0-29.765-24.129-53.895-53.895-53.895h-862.316c-29.765 0-53.895 24.129-53.895 53.895v100.090c0 29.765 24.129 53.895 53.895 53.895zM53.895 531.729h862.316c29.765 0 53.895-24.129 53.895-53.895v-100.090c0-29.765-24.129-53.895-53.895-53.895h-862.316c-29.765 0-53.895 24.129-53.895 53.895v100.090c0 29.765 24.129 53.895 53.895 53.895zM53.895 150.614h862.316c29.765 0 53.895-24.129 53.895-53.895v-100.090c0-29.765-24.129-53.895-53.895-53.895h-862.316c-29.765 0-53.895 24.129-53.895 53.895v100.090c0 29.765 24.129 53.895 53.895 53.895z" />
<glyph unicode="&#xe909;" glyph-name="map-marker" horiz-adv-x="709" d="M318.033 14.147c-268.242 388.873-318.033 428.783-318.033 571.699 0 195.764 158.697 354.462 354.462 354.462s354.462-158.697 354.462-354.462c0-142.917-49.791-182.827-318.033-571.699-17.603-25.427-55.256-25.427-72.857 0zM354.462 438.154c81.569 0 147.692 66.124 147.692 147.692s-66.124 147.692-147.692 147.692c-81.569 0-147.692-66.124-147.692-147.692s66.124-147.692 147.692-147.692z" />
<glyph unicode="&#xe90a;" glyph-name="message" d="M362.666 192l149.334-170.665 149.335 170.665h149.33c47.063 0 85.335 38.272 85.335 85.335v511.997c0 47.062-38.272 85.334-85.335 85.334h-597.331c-47.062 0-85.334-38.272-85.334-85.334v-511.997c0-47.063 38.272-85.335 85.334-85.335h149.333zM298.666 661.332h426.669v-85.334h-426.669v85.334zM298.666 490.666h298.669v-85.331h-298.669v85.331z" />
<glyph unicode="&#xe90b;" glyph-name="minus" horiz-adv-x="956" d="M788.494 535.183v-143.36h-621.227v143.36h621.227z" />
<glyph unicode="&#xe90c;" glyph-name="notifications" d="M511.999 21.335c46.931 0 85.331 38.4 85.331 85.33h-170.664c0-22.63 8.991-44.334 24.994-60.339 16.003-16 37.708-24.991 60.34-24.991zM768 277.335v213.332c0 130.986-69.975 240.64-192 269.654v29.013c0 35.414-28.59 64-64.001 64-35.414 0-64-28.586-64-64v-29.013c-122.454-29.014-192-138.241-192-269.654v-213.332l-85.334-85.335v-42.665h682.664v42.665l-85.33 85.335z" />
<glyph unicode="&#xe90d;" glyph-name="phone" d="M138.4 729.8l106.5 106.4c7.513 7.546 16.442 13.533 26.275 17.617s20.377 6.185 31.025 6.183c21.7 0 42.1-8.5 57.4-23.8l114.6-114.6c7.545-7.513 13.533-16.442 17.617-26.275s6.185-20.377 6.183-31.025c0-21.7-8.5-42.1-23.8-57.4l-83.8-83.8c19.616-43.236 46.888-82.57 80.5-116.101 33.528-33.695 72.86-61.066 116.098-80.799l83.804 83.799c7.511 7.547 16.44 13.532 26.276 17.618 9.83 4.086 20.372 6.185 31.022 6.185 21.699 0 42.102-8.504 57.4-23.803l114.698-114.499c7.557-7.526 13.548-16.471 17.633-26.322s6.18-20.413 6.17-31.078c0-21.699-8.499-42.102-23.803-57.4l-106.296-106.301c-24.402-24.499-58.102-38.4-92.703-38.4-7.301 0-14.3 0.599-21.202 1.802-134.799 22.2-268.497 93.901-376.397 201.697-107.8 107.699-179.4 241.302-201.9 376.502-6.8 41.3 6.9 83.8 36.7 113.8z" />
<glyph unicode="&#xe90e;" glyph-name="plus" horiz-adv-x="956" d="M788.494 535.184v-143.36h-238.933v-238.934h-143.36v238.934h-238.933v143.36h238.933v238.933h143.36v-238.933h238.933z" />
<glyph unicode="&#xe90f;" glyph-name="purse" d="M814.546 642.022h-564.13c-6.738-1.304-13.681-1.101-20.331 0.591s-12.845 4.835-18.138 9.202c-5.294 4.366-9.555 9.848-12.481 16.054s-4.442 12.981-4.44 19.841v0.884l596.249 23.216v55.366c0.973 8.261 0.051 16.634-2.688 24.488s-7.229 14.983-13.128 20.848c-5.898 5.866-13.056 10.315-20.925 13.011-7.875 2.697-16.256 3.57-24.515 2.554l-529.408-86.026c-17.867-6.593-33.287-18.495-44.188-34.106s-16.758-34.185-16.787-53.222v-501.174c0-18.509 7.356-36.26 20.449-49.347s30.852-20.439 49.369-20.439h605.090c18.519 0 36.275 7.352 49.372 20.439 13.092 13.087 20.444 30.838 20.444 49.347v419.196l0.051 1.907c0 17.892-7.112 35.052-19.768 47.703s-29.824 19.759-47.724 19.759l-2.468-0.046 0.092-0.047zM744.73 316.344c-18.524 0.005-36.285 7.368-49.377 20.46-13.097 13.097-20.449 30.858-20.444 49.372 0.010 18.519 7.373 36.27 20.475 49.357 13.102 13.090 30.868 20.439 49.393 20.433 9.17-0.003 18.253-1.811 26.726-5.323 8.468-3.513 16.169-8.654 22.651-15.141s11.628-14.182 15.135-22.656c3.507-8.468 5.309-17.546 5.304-26.716 0-9.165-1.812-18.243-5.325-26.711s-8.658-16.164-15.145-22.646c-6.487-6.482-14.193-11.622-22.666-15.124-8.474-3.507-17.556-5.309-26.726-5.304z" />
<glyph unicode="&#xe910;" glyph-name="search" d="M708.923 526.769c0 75.897-26.974 140.82-80.923 194.769s-118.872 80.923-194.769 80.923c-75.897 0-140.82-26.974-194.769-80.923s-80.923-118.872-80.923-194.769c0-75.897 26.974-140.82 80.923-194.769s118.872-80.923 194.769-80.923c75.897 0 140.82 26.974 194.769 80.923s80.923 118.872 80.923 194.769zM1024 14.768c0-21.328-7.797-39.79-23.384-55.384-15.594-15.587-34.055-23.384-55.384-23.384-22.155 0-40.616 7.797-55.384 23.384l-211.079 210.461c-73.436-50.871-155.282-76.31-245.538-76.31-58.667 0-114.769 11.388-168.308 34.158s-99.693 53.541-138.462 92.306c-38.769 38.77-69.539 84.924-92.308 138.462s-34.154 109.641-34.154 168.308c0 58.667 11.385 114.769 34.154 168.308s53.539 99.693 92.308 138.462c38.769 38.769 84.923 69.539 138.462 92.308s109.64 34.154 168.308 34.154c58.666 0 114.769-11.385 168.308-34.154s99.692-53.539 138.462-92.308c38.766-38.769 69.537-84.923 92.306-138.462s34.158-109.64 34.158-168.308c0-90.256-25.439-172.102-76.31-245.538l211.076-211.079c15.177-15.177 22.769-33.638 22.769-55.384z" />
<glyph unicode="&#xe911;" glyph-name="star" horiz-adv-x="1103" d="M509.101 913.527c11.788 36.286 63.122 36.285 74.913 0l95.181-292.931c5.27-16.227 20.393-27.214 37.455-27.214h308.007c38.152 0 54.016-48.823 23.146-71.248l-249.179-181.039c-13.804-10.031-19.582-27.806-14.308-44.036l95.177-292.927c11.792-36.289-29.739-66.462-60.605-44.036l-249.183 181.043c-13.804 10.027-32.496 10.027-46.297 0l-249.184-181.043c-30.866-22.426-72.396 7.747-60.607 44.036l95.179 292.927c5.272 16.23-0.504 34.005-14.307 44.036l-249.182 181.039c-30.866 22.426-15.003 71.248 23.15 71.248h308.006c17.062 0 32.186 10.987 37.456 27.214l95.181 292.931z" />
<glyph unicode="&#xe912;" glyph-name="team" d="M412.711 820.314c-23.155 0.554-46.186-3.529-67.74-12.007s-41.194-21.181-57.766-37.362c-16.572-16.181-29.741-35.512-38.732-56.857s-13.623-44.272-13.623-67.433c0-23.161 4.632-46.089 13.623-67.433s22.16-40.676 38.732-56.857c16.572-16.181 36.212-28.883 57.766-37.362s44.585-12.561 67.74-12.007c23.154-0.553 46.186 3.529 67.74 12.007s41.195 21.181 57.768 37.362c16.568 16.181 29.737 35.512 38.728 56.857 8.996 21.345 13.624 44.272 13.624 67.433s-4.628 46.089-13.624 67.433c-8.991 21.345-22.159 40.676-38.728 56.857-16.573 16.18-36.215 28.883-57.768 37.362s-44.585 12.561-67.74 12.007zM313.421 373.801c-46.084 0-90.28-18.309-122.866-50.893-32.586-32.589-50.893-76.785-50.893-122.865v-123.965h546.095v123.965c0 46.080-18.304 90.276-50.893 122.865-32.584 32.584-76.78 50.893-122.865 50.893h-198.579zM760.228 323.866h-24.827v-248.228h148.936v124.114c0 32.916-13.076 64.486-36.352 87.762s-54.84 36.352-87.757 36.352zM710.579 621.734c-32.916 0-64.481-13.076-87.757-36.352s-36.352-54.844-36.352-87.761c0-32.917 13.076-64.484 36.352-87.76s54.84-36.352 87.757-36.352c32.922 0 64.486 13.076 87.762 36.352s36.352 54.843 36.352 87.76c0 32.916-13.076 64.485-36.352 87.761s-54.84 36.352-87.762 36.352z" />
<glyph unicode="&#xe913;" glyph-name="tile" horiz-adv-x="970" d="M100.092 912.842h261.774c29.765 0 53.895-24.129 53.895-53.895v-261.774c0-29.765-24.129-53.895-53.895-53.895h-261.774c-29.765 0-53.895 24.129-53.895 53.895v261.774c0 29.765 24.129 53.895 53.895 53.895zM654.438 912.842h261.774c29.765 0 53.895-24.129 53.895-53.895v-261.774c0-29.765-24.129-53.895-53.895-53.895h-261.774c-29.765 0-53.895 24.129-53.895 53.895v261.774c0 29.765 24.129 53.895 53.895 53.895zM100.092 312.298h261.774c29.765 0 53.895-24.129 53.895-53.895v-261.774c0-29.765-24.129-53.895-53.895-53.895h-261.774c-29.765 0-53.895 24.129-53.895 53.895v261.774c0 29.765 24.129 53.895 53.895 53.895zM654.438 312.298h261.774c29.765 0 53.895-24.129 53.895-53.895v-261.774c0-29.765-24.129-53.895-53.895-53.895h-261.774c-29.765 0-53.895 24.129-53.895 53.895v261.774c0 29.765 24.129 53.895 53.895 53.895z" />
<glyph unicode="&#xe914;" glyph-name="unarchive" d="M822.303 797.091l77.578-155.151v-504.243c0-10.286-4.086-20.152-11.361-27.428s-17.142-11.361-27.428-11.361h-698.182c-10.287 0-20.153 4.086-27.427 11.361s-11.36 17.142-11.36 27.428v504.088l77.576 155.306h620.605zM512 525.576l-155.151-155.149h116.364v-155.151h77.576v155.151h116.362l-155.151 155.149zM774.364 719.516h-524.725l-38.749-77.576h602.258l-38.784 77.576z" />
<glyph unicode="&#xe915;" glyph-name="uncheck" horiz-adv-x="964" d="M60.235 568.471h843.294c33.267 0 60.235-26.968 60.235-60.235v-120.471c0-33.267-26.968-60.235-60.235-60.235h-843.294c-33.267 0-60.235 26.968-60.235 60.235v120.471c0 33.267 26.968 60.235 60.235 60.235z" />
<glyph unicode="&#xe916;" glyph-name="up" horiz-adv-x="717" d="M407.035 916.719l309.76-322.56h-197.12v-563.679h-225.28v563.679h-197.12l309.76 322.56z" />
<glyph unicode="&#xe917;" glyph-name="1" horiz-adv-x="410" d="M138.772-10.954v690.548h-136.192v195.212h384.205v-885.76h-248.013z" />
<glyph unicode="&#xe918;" glyph-name="star-rating" d="M414.611 865.070c30.654 94.342 164.123 94.342 194.777 0l40.552-124.81c13.709-42.191 53.026-70.756 97.389-70.756h131.233c99.198 0 140.442-126.937 60.19-185.244l-106.17-77.137c-35.889-26.075-50.907-72.295-37.199-114.486l40.553-124.81c30.653-94.342-77.325-172.793-157.577-114.486l-106.17 77.137c-35.889 26.075-84.488 26.075-120.378 0l-106.169-77.137c-80.252-58.307-188.231 20.144-157.577 114.486l40.553 124.81c13.708 42.191-1.31 88.411-37.199 114.486l-106.17 77.137c-80.252 58.307-39.008 185.244 60.19 185.244h131.233c44.363 0 83.679 28.566 97.389 70.756l40.552 124.81z" />
<glyph unicode="&#xe919;" glyph-name="chevron-left" horiz-adv-x="983" d="M280.854 448c-0.024-12.304 4.261-24.228 12.112-33.702l263.315-315.978c8.937-10.756 21.783-17.519 35.709-18.801 13.926-1.286 27.791 3.015 38.543 11.956 10.756 8.937 17.519 21.783 18.805 35.709 1.282 13.922-3.019 27.787-11.956 38.543l-235.931 282.272 227.505 282.275c4.375 5.387 7.639 11.585 9.609 18.238 1.974 6.654 2.609 13.631 1.876 20.531s-2.826 13.587-6.152 19.677c-3.326 6.090-7.823 11.462-13.234 15.808-5.415 4.823-11.768 8.476-18.661 10.729-6.889 2.254-14.172 3.060-21.393 2.367-7.217-0.692-14.213-2.867-20.554-6.39-6.337-3.522-11.878-8.316-16.278-14.080l-254.363-315.979c-6.61-9.744-9.762-21.426-8.953-33.178z" />
<glyph unicode="&#xe91a;" glyph-name="chevron-right" horiz-adv-x="956" d="M682.664 452.878c0.023-11.963-4.143-23.557-11.776-32.768l-256-307.197c-8.69-10.458-21.178-17.033-34.717-18.282s-27.019 2.929-37.475 11.626c-10.456 8.69-17.031 21.176-18.279 34.714s2.933 27.020 11.623 37.472l229.376 274.435-221.184 274.432c-4.253 5.237-7.429 11.263-9.345 17.732s-2.536 13.252-1.822 19.961c0.713 6.709 2.746 13.21 5.98 19.13s7.608 11.144 12.867 15.369c5.265 4.689 11.441 8.24 18.141 10.431s13.782 2.974 20.799 2.301c7.018-0.672 13.821-2.787 19.983-6.212s11.551-8.084 15.828-13.688l247.296-307.2c6.427-9.476 9.492-20.833 8.704-32.256z" />
<glyph unicode="&#xe91b;" glyph-name="calendar" d="M233.245 49.773h557.509c43.923 0 79.647 35.724 79.647 79.647v557.512c0 43.924-35.724 79.645-79.647 79.645h-79.642v79.644h-79.645v-79.644h-238.933v79.644h-79.645v-79.644h-79.644c-43.924 0-79.645-35.721-79.645-79.645v-557.512c0-43.923 35.721-79.647 79.645-79.647zM233.245 647.11h557.509v-79.645h-557.509v79.645z" />
<glyph unicode="&#xe91c;" glyph-name="info" d="M512.015 854.348c-224.303 0-406.348-182.044-406.348-406.348s182.045-406.352 406.348-406.352c224.305 0 406.352 182.048 406.352 406.352s-182.048 406.348-406.352 406.348zM512.015 244.824c-22.348 0-40.634 18.286-40.634 40.633v162.543c0 22.348 18.286 40.634 40.634 40.634 22.352 0 40.638-18.286 40.638-40.634v-162.543c0-22.348-18.286-40.633-40.638-40.633zM552.653 569.904h-81.272v81.27h81.272v-81.27z" />
<glyph unicode="&#xe91d;" glyph-name="truck" d="M921.6 422.404l-102.4 204.8h-153.6v102.4c0 28.16-23.040 51.2-51.2 51.2h-460.8c-28.16 0-51.2-23.040-51.2-51.2v-409.6l51.2-51.197h64.922c-8.989-15.572-13.721-33.225-13.722-51.2-0.001-17.981 4.73-35.635 13.718-51.207 8.987-15.565 21.914-28.495 37.481-37.478 15.568-8.991 33.226-13.722 51.201-13.722s35.634 4.731 51.201 13.722c15.567 8.984 28.494 21.914 37.481 37.478 8.987 15.572 13.718 33.225 13.718 51.207-0.001 17.975-4.733 35.628-13.722 51.2h283.443c-8.989-15.572-13.721-33.225-13.722-51.2-0.001-17.981 4.73-35.635 13.718-51.207 8.987-15.565 21.914-28.495 37.481-37.478 15.566-8.991 33.227-13.722 51.201-13.722s35.635 4.731 51.2 13.722c15.565 8.984 28.495 21.914 37.485 37.478 8.984 15.572 13.715 33.225 13.715 51.207 0 17.975-4.731 35.628-13.722 51.2h64.922v153.597zM665.6 422.404v153.6h106.141l76.8-153.6h-182.941z" />
<glyph unicode="&#xe91e;" glyph-name="telegram" d="M918.296 846.989l-859.466-333.144c-34.587-15.514-46.285-46.582-8.36-63.443l220.491-70.433 533.121 331.181c29.109 20.791 58.907 15.247 33.264-7.624l-457.877-416.719-14.383-176.354c13.322-27.228 37.715-27.357 53.274-13.824l126.679 120.487 216.957-163.301c50.392-29.987 77.808-10.639 88.651 44.323l142.304 677.313c14.773 67.651-10.423 97.459-74.655 71.539z" />
<glyph unicode="&#xe91f;" glyph-name="line-chart" d="M744.141 642.603l90.452-90.454-258.56-258.644-128 128-168.106-168.108-90.453 90.54 258.559 258.56 128-128 168.108 168.106z" />
<glyph unicode="&#xe920;" glyph-name="edit" d="M859.082 142.417h-694.164c-16.694 0-30.181-13.484-30.181-30.181v-33.954c0-4.15 3.395-7.545 7.545-7.545h739.436c4.15 0 7.545 3.395 7.545 7.545v33.954c0 16.697-13.484 30.181-30.181 30.181zM272.155 221.642c1.886 0 3.773 0.189 5.659 0.474l158.639 27.82c1.886 0.377 3.678 1.223 4.999 2.641l399.807 399.805c0.873 0.873 1.563 1.909 2.037 3.050s0.717 2.364 0.717 3.6c0 1.235-0.243 2.458-0.717 3.599s-1.164 2.177-2.037 3.050l-156.753 156.847c-1.795 1.792-4.155 2.735-6.699 2.735s-4.904-0.943-6.694-2.735l-399.807-399.805c-1.415-1.415-2.264-3.112-2.641-4.999l-27.823-158.636c-0.917-5.055-0.59-10.256 0.955-15.155 1.545-4.894 4.26-9.34 7.911-12.951 6.225-6.042 14.053-9.34 22.447-9.34z" />
<glyph unicode="&#xe921;" glyph-name="eye" d="M518.749 634.667c-17.665-0.276-35.198-3.082-52.066-8.334 7.802-13.722 11.957-29.215 12.066-45 0-12.256-2.414-24.393-7.105-35.717s-11.565-21.612-20.232-30.28c-8.667-8.666-18.956-15.542-30.28-20.232s-23.461-7.105-35.717-7.105c-15.785 0.109-31.278 4.264-45 12.067-10.826-37.547-9.565-77.548 3.606-114.337s37.583-68.503 69.78-90.647c32.196-22.145 70.543-33.597 109.61-32.736s76.873 13.991 108.062 37.532c31.189 23.541 54.182 56.298 65.719 93.632s11.037 77.352-1.432 114.385c-12.47 37.034-36.275 69.204-68.044 91.957s-69.892 34.932-108.968 34.814zM992.947 472.334c-90.385 176.35-269.315 295.666-474.198 295.666s-383.867-119.4-474.2-295.683c-3.813-7.542-5.799-15.875-5.799-24.325s1.986-16.783 5.799-24.325c90.383-176.35 269.316-295.666 474.2-295.666s383.864 119.4 474.198 295.683c3.814 7.542 5.803 15.875 5.803 24.325s-1.988 16.783-5.803 24.325zM518.749 208c-164.417 0-315.15 91.667-396.55 240 81.4 148.333 232.117 240 396.55 240s315.15-91.667 396.553-240c-81.387-148.333-232.12-240-396.553-240z" />
<glyph unicode="&#xe922;" glyph-name="settings" d="M803.624 409.999c1.552 12.41 2.716 24.821 2.716 38.008s-1.164 25.598-2.716 38.009l81.834 63.995c7.373 5.818 9.308 16.29 4.657 24.822l-77.571 134.195c-4.651 8.533-15.123 11.635-23.66 8.533l-96.574-38.785c-20.167 15.514-41.887 28.313-65.547 38.009l-14.735 102.779c-0.641 4.563-2.926 8.736-6.424 11.735s-7.971 4.618-12.579 4.555h-155.141c-9.696 0-17.841-6.982-19.004-16.29l-14.738-102.779c-23.659-9.696-45.378-22.883-65.546-38.009l-96.573 38.785c-8.921 3.49-19.005 0-23.659-8.533l-77.57-134.195c-5.042-8.533-2.715-19.004 4.654-24.822l81.835-63.995c-1.551-12.411-2.715-25.21-2.715-38.009s1.164-25.598 2.715-38.008l-81.835-63.995c-7.369-5.821-9.308-16.292-4.654-24.824l77.57-134.193c4.654-8.537 15.126-11.636 23.659-8.537l96.573 38.788c20.168-15.516 41.888-28.311 65.546-38.012l14.738-102.777c1.164-9.308 9.309-16.287 19.004-16.287h155.141c9.696 0 17.839 6.979 19.003 16.287l14.735 102.777c23.66 9.701 45.379 22.884 65.547 38.012l96.574-38.788c8.92-3.487 19.009 0 23.66 8.537l77.571 134.193c4.651 8.532 2.716 19.003-4.657 24.824l-81.834 63.995zM515.454 312.261c-74.854 0-135.746 60.89-135.746 135.746 0 74.854 60.892 135.746 135.746 135.746s135.745-60.892 135.745-135.746c0-74.856-60.89-135.746-135.745-135.746z" />
<glyph unicode="&#xe923;" glyph-name="exit" d="M460.374 264.96c16.64-16.64 43.52-16.64 60.162 0l153.17 153.175c3.958 3.948 7.096 8.632 9.236 13.793 2.14 5.166 3.241 10.696 3.241 16.285s-1.101 11.121-3.241 16.283-5.279 9.85-9.236 13.797l-153.17 153.173c-7.977 7.978-18.8 12.46-30.082 12.46s-22.103-4.482-30.080-12.46c-7.978-7.977-12.46-18.798-12.46-30.080s4.482-22.102 12.46-30.080l80.211-80.64h-369.918c-23.466 0-42.666-19.2-42.666-42.666s19.2-42.665 42.666-42.665h369.918l-80.211-80.215c-16.64-16.64-16.214-43.945 0-60.16zM810.665 832h-597.331c-22.632 0-44.337-8.99-60.34-24.994s-24.994-37.708-24.994-60.34v-128c0-23.466 19.2-42.666 42.666-42.666s42.667 19.2 42.667 42.666v85.334c0 23.466 19.2 42.666 42.666 42.666h512c23.465 0 42.665-19.2 42.665-42.666v-512c0-23.465-19.2-42.665-42.665-42.665h-512c-23.466 0-42.666 19.2-42.666 42.665v85.335c0 23.465-19.2 42.665-42.667 42.665s-42.666-19.2-42.666-42.665v-128c0-46.935 38.4-85.335 85.334-85.335h597.331c46.935 0 85.335 38.4 85.335 85.335v597.331c0 46.934-38.4 85.334-85.335 85.334z" />
<glyph unicode="&#xe924;" glyph-name="share" d="M128 448.012c0-74.723 60.808-135.528 135.529-135.528 35.87 0 68.307 14.228 92.567 37.043l270.653-154.685c-0.814-5.873-1.807-11.745-1.807-17.889 0-74.721 60.805-135.526 135.526-135.526 74.726 0 135.532 60.805 135.532 135.526s-60.805 135.532-135.532 135.532c-35.866 0-68.306-14.234-92.564-37.048l-270.652 154.639c0.814 5.919 1.807 11.791 1.807 17.937 0 6.144-0.994 12.017-1.807 17.935l270.652 154.639c24.259-22.814 56.699-37.045 92.564-37.045 74.726 0 135.532 60.808 135.532 135.529s-60.805 135.529-135.532 135.529c-74.721 0-135.526-60.808-135.526-135.529 0-6.144 0.993-12.017 1.807-17.935l-270.653-154.639c-24.983 23.732-58.109 36.989-92.567 37.045-74.722 0-135.529-60.808-135.529-135.529z" />
<glyph unicode="&#xe925;" glyph-name="lock-closed" d="M260 617.095c0 58.068 23.067 113.759 64.128 154.819s96.751 64.128 154.819 64.128c58.068 0 113.76-23.067 154.817-64.128 41.062-41.060 64.129-96.751 64.129-154.819v-87.579c23.229 0 45.503-9.227 61.93-25.651 16.422-16.424 25.649-38.7 25.649-61.928v-218.948c0-23.229-9.227-45.503-25.649-61.925-16.427-16.427-38.702-25.654-61.93-25.654h-437.894c-23.228 0-45.503 9.227-61.928 25.654-16.424 16.422-25.651 38.696-25.651 61.925v218.948c0 23.228 9.227 45.503 25.651 61.928s38.7 25.651 61.928 25.651v87.579zM610.315 529.516v87.579c0 34.841-13.84 68.255-38.475 92.891s-58.051 38.477-92.892 38.477c-34.841 0-68.255-13.841-92.891-38.477s-38.477-58.050-38.477-92.891v-87.579h262.736zM313.009 280.463c30.671 0 55.535 24.867 55.535 55.539s-24.864 55.533-55.535 55.533c-30.671 0-55.536-24.862-55.536-55.533s24.864-55.539 55.536-55.539zM533.975 336.001c0 30.671-24.864 55.533-55.535 55.533s-55.536-24.862-55.536-55.533c0-30.671 24.864-55.539 55.536-55.539s55.535 24.867 55.535 55.539zM653.517 280.463c30.671 0 55.533 24.867 55.533 55.539s-24.862 55.533-55.533 55.533c-30.671 0-55.533-24.862-55.533-55.533s24.862-55.539 55.533-55.539z" />
<glyph unicode="&#xe926;" glyph-name="coins" d="M597.373 874.672c78.080 0.037 153.811-26.695 214.566-75.739 60.752-49.044 102.854-117.434 119.286-193.765s6.195-155.984-28.995-225.683c-35.194-69.696-93.219-125.222-164.397-157.315-22.752-50.298-57.366-94.33-100.87-128.317-43.507-33.984-94.605-56.912-148.918-66.813-54.31-9.898-110.211-6.477-162.912 9.971-52.699 16.448-100.622 45.434-139.659 84.47s-68.023 86.96-84.471 139.658c-16.449 52.701-19.87 108.602-9.969 162.915 9.9 54.31 32.827 105.411 66.812 148.915 33.986 43.507 78.017 78.118 128.317 100.87 27.057 59.866 70.81 110.656 126.010 146.278s119.504 54.564 185.2 54.554zM426.707 618.672c-33.619 0-66.909-6.621-97.968-19.488-31.059-12.864-59.28-31.722-83.052-55.494-23.772-23.77-42.628-51.99-55.494-83.050s-19.487-64.349-19.487-97.968c0-33.619 6.621-66.909 19.487-97.968s31.722-59.28 55.494-83.053c23.772-23.77 51.993-42.627 83.052-55.491 31.059-12.867 64.349-19.488 97.968-19.488 67.894 0 133.008 26.97 181.018 74.979s74.982 113.126 74.982 181.021c0 67.894-26.973 133.011-74.982 181.018-48.010 48.010-113.123 74.982-181.018 74.982zM597.373 789.339c-36.15 0.042-71.901-7.592-104.883-22.398-32.979-14.806-62.442-36.447-86.432-63.49 48.224 2.927 96.518-4.416 141.696-21.544 45.174-17.129 86.198-43.653 120.358-77.817 34.16-34.166 60.678-75.194 77.802-120.368 17.123-45.178 24.461-93.475 21.53-141.699 38.794 34.49 66.186 79.958 78.541 130.374 12.358 50.416 9.094 103.398-9.35 151.92-18.448 48.519-51.21 90.285-93.939 119.757-42.733 29.472-93.411 45.258-145.322 45.264z" />
<glyph unicode="&#xe927;" glyph-name="wallet" d="M767.978 661.333h128c11.318 0 22.17-4.495 30.173-12.497 8-8.002 12.496-18.852 12.496-30.171v-512c0-11.315-4.496-22.166-12.496-30.17-8.003-8-18.854-12.496-30.173-12.496h-767.998c-11.316 0-22.168 4.496-30.17 12.496-8.002 8.003-12.497 18.854-12.497 30.17v682.668c0 11.316 4.495 22.168 12.497 30.17s18.854 12.497 30.17 12.497h639.998v-170.667zM170.646 576v-426.666h682.666v426.666h-682.666zM170.646 746.667v-85.333h512.001v85.333h-512.001zM639.978 405.334h128v-85.334h-128v85.334z" />
<glyph unicode="&#xe928;" glyph-name="exchange" d="M512 21.333c-235.648 0-426.667 191.016-426.667 426.667 0 235.648 191.019 426.667 426.667 426.667 235.651 0 426.667-191.019 426.667-426.667 0-235.651-191.016-426.667-426.667-426.667zM512 106.667c90.527 0 177.345 35.959 241.357 99.977 64.017 64.011 99.977 150.83 99.977 241.357s-35.959 177.347-99.977 241.359c-64.011 64.013-150.83 99.974-241.357 99.974s-177.347-35.962-241.359-99.974c-64.013-64.013-99.974-150.832-99.974-241.359s35.962-177.345 99.974-241.357c64.013-64.017 150.832-99.977 241.359-99.977zM298.667 405.333h384v-85.333h-170.667v-128l-213.333 213.333zM512 576v128l213.333-213.333h-384v85.333h170.667z" />
<glyph unicode="&#xe929;" glyph-name="up-circle" horiz-adv-x="970" d="M485.053 43.789c-223.124 0-404.211 181.086-404.211 404.211s181.086 404.211 404.211 404.211c223.124 0 404.211-181.086 404.211-404.211s-181.086-404.211-404.211-404.211zM485.053 771.368c-178.661 0-323.368-144.707-323.368-323.368s144.707-323.368 323.368-323.368c178.661 0 323.368 144.707 323.368 323.368s-144.707 323.368-323.368 323.368zM444.632 448v161.684h80.842v-161.684h121.263l-161.684-161.684-161.684 161.684h121.263z" />
<glyph unicode="&#xe92a;" glyph-name="down-circle" d="M552.421 599.983v-283.352h-80.842v283.352h-121.263l161.684 161.28 161.684-161.28h-121.263zM188.632 195.368h646.737v-94.316h-646.737v94.316z" />
<glyph unicode="&#xe92b;" glyph-name="dots" horiz-adv-x="1075" d="M528.041 560.65c-14.797 0-29.452-2.915-43.125-8.579s-26.096-13.964-36.56-24.428c-10.464-10.464-18.765-22.887-24.428-36.56s-8.579-28.326-8.579-43.125c0-14.797 2.915-29.455 8.579-43.126s13.964-26.097 24.428-36.557c10.464-10.465 22.887-18.77 36.56-24.433s28.328-8.576 43.125-8.576c29.885 0.005 58.547 11.884 79.677 33.024s32.993 49.807 32.988 79.693c-0.005 29.887-11.884 58.548-33.024 79.677s-49.807 32.995-79.693 32.989h0.051zM169.641 560.65c-14.798 0-29.452-2.915-43.125-8.579s-26.096-13.964-36.56-24.428c-10.464-10.464-18.765-22.887-24.428-36.56s-8.579-28.326-8.579-43.125c0-14.797 2.915-29.455 8.579-43.126s13.964-26.097 24.428-36.557c10.464-10.465 22.887-18.77 36.56-24.433s28.326-8.576 43.125-8.576c29.888 0.005 58.549 11.884 79.677 33.024s32.995 49.807 32.988 79.693c-0.007 29.887-11.886 58.548-33.025 79.677s-49.804 32.995-79.692 32.989h0.051zM886.441 560.65c-14.797 0-29.45-2.915-43.126-8.579-13.67-5.663-26.097-13.964-36.557-24.428-10.465-10.464-18.765-22.887-24.433-36.56-5.663-13.672-8.576-28.326-8.576-43.125 0-14.797 2.913-29.455 8.576-43.126 5.668-13.67 13.967-26.097 24.433-36.557 10.46-10.465 22.886-18.77 36.557-24.433 13.676-5.663 28.329-8.576 43.126-8.576 29.885 0.005 58.547 11.884 79.677 33.024s32.993 49.807 32.988 79.693c-0.005 29.887-11.884 58.548-33.024 79.677s-49.807 32.995-79.693 32.989h0.051z" />
</font>
</defs>
</svg>
